# xmcd
#
# Track frame offsets: 
#        150
#        63220
#        84305
#        98487
#        157282
#        173705
#        193207
#        206737
#        221507
#        249857
#        276547
#        292790
#        313955
#        333582
#
# Disc length: 4761 seconds
#
# Revision: 6
# Processed by: cddbd v1.5.2PL0 Copyright (c) Steve Scherf et al.
# Submitted via: ExactAudioCopy v0.95b4
#
DISCID=d012970e
DTITLE=Duke Ellington - Soul Call
DYEAR=1966
DGENRE=Blues
TTITLE0=La Plus Belle Africaine
TTITLE1=West Indian Pancake
TTITLE2=Soul Call
TTITLE3=Skin Deep
TTITLE4=Jam With Sam
TTITLE5=Sophisticated Lady
TTITLE6=Wings and Things
TTITLE7=The Opener
TTITLE8=Caravan
TTITLE9=Kinda Dukish and Rockin' in Rhythm
TTITLE10=Such Sweet Thunder
TTITLE11=Madness in Great Ones
TTITLE12=Main Stem
TTITLE13=Take the "A" Train
EXTD=
EXTT0=
EXTT1=
EXTT2=
EXTT3=
EXTT4=
EXTT5=
EXTT6=
EXTT7=
EXTT8=
EXTT9=
EXTT10=
EXTT11=
EXTT12=
EXTT13=
PLAYORDER=
